<svg width="1160" height="238" viewBox="0 0 1160 238" fill="none" xmlns="http://www.w3.org/2000/svg">
<path fill-rule="evenodd" clip-rule="evenodd" d="M324.089 60.6249L520.943 192.429V73.1426H484.933V129.595L288.079 0V237.591H324.089V60.6249ZM663.783 131.069V75.598H628.973V142.604V193.166L695.952 146.777L833.99 237.592H887.765L723.079 129.105L913.692 1.96441H860.157L663.783 131.069ZM178.849 114.13C170.687 71.6681 134.197 39.5147 90.2649 39.5147C40.3311 39.5147 0 80.7495 0 131.802C0 182.855 40.3311 224.089 90.2649 224.089V189.236C65.298 189.236 44.1722 172.546 36.7301 149.474H143.56H178.609C179.57 143.829 180.29 137.938 180.29 131.802C180.29 125.666 179.81 119.775 178.849 114.13ZM36.7301 114.13C43.9321 91.0582 65.0579 74.3679 90.2649 74.3679C115.472 74.3679 136.358 91.0582 143.8 114.13H36.7301ZM1069.74 39.5147C1019.8 39.5147 979.47 80.7495 979.47 131.802C979.47 182.855 1019.8 224.089 1069.74 224.089C1119.67 224.089 1160 182.855 1160 131.802C1160 80.7495 1119.43 39.5147 1069.74 39.5147ZM1069.74 189.236C1038.77 189.236 1013.56 163.465 1013.56 131.802C1013.56 100.14 1038.77 74.368 1069.74 74.368C1100.7 74.368 1125.91 100.14 1125.91 131.802C1125.91 163.465 1100.7 189.236 1069.74 189.236Z" fill="black"/>
</svg>
