<svg xmlns="http://www.w3.org/2000/svg" xmlns:svg="http://www.w3.org/2000/svg" enable-background="new 0 0 596.9 620" viewBox="4.4 506.5 588.4 113.5">
 <radialGradient cx="298.46" cy="196.06" gradientUnits="userSpaceOnUse" id="a" r="221.04">
  <stop offset="0" stop-color="#0018ff"/>
  <stop offset="1" stop-color="#0048ff"/>
 </radialGradient>
 <g class="layer">
  <title>Layer 1</title>
  <path d="m212.3,543.3l0,4.9l26.8,0l0,-4.9s-4.1,0 -5.1,0l-1.3,-0.1c-0.5,-0.1 -0.9,-0.5 -1,-0.9l-0.1,-1.1c0,-0.7 0,-7.4 0,-7.7l0.2,-0.7c0.4,-0.4 14.2,-16.2 14.9,-16.9c1.3,-1.5 2.1,-1.9 3.9,-1.9l4.9,0l0,-4.9l-22.1,0l0,4.9l3.3,0c1,0 1.3,1 0.8,1.5l-9.4,11l-0.3,0l-9.1,-10.9c-0.7,-0.8 -0.1,-1.5 0.6,-1.5l3.2,0l0,-4.9l-26.9,0l0,4.9l4.8,0c2.1,0 3.4,1.3 4.2,2.2c0.6,0.7 14.3,16.2 14.7,16.7c0.3,0.4 0.3,0.5 0.3,0.7l0,7.7l-0.1,1.1c-0.2,0.4 -0.5,0.8 -1.1,0.9l-1.4,0.1l-4.7,0l0,-0.2zm-82.4,-34.2l0,4.9l4.3,0c3.1,0 3.3,1.7 3.3,3.2l0,22.8c0,1.4 0.1,3.2 -1.9,3.2c-3.1,0 -5.3,0 -5.3,0l0,4.9l22.6,0l0,-4.9s-2.4,0 -5.5,0c-2.2,0 -2.3,-1 -2.4,-3.1l0,-19.6l30.9,27.6l7.9,0l-0.4,-31.2c0.1,-2.3 0.2,-3 2.5,-3l4.9,0l0,-4.9l-23,0l0,4.9l5.1,0c2.3,0 2.7,0.9 2.7,3l0.3,16.3l-26.8,-24.2l-19.2,0l0,0.1zm-101.4,-2.5c-4.8,0 -10.4,0.9 -15,3c-4.3,1.9 -7.9,5 -7.9,10.2c0,4.6 3,7.4 2.9,7.3c1.3,1.2 3.3,3.2 8.6,4.3c2.4,0.5 7.4,1.3 12.4,1.9c5,0.5 9.9,1 11.9,1.5c1.6,0.4 4.2,1 4.2,4s-2.8,3.9 -3.3,4.1s-3.9,1.7 -9.9,1.7c-4.5,0 -9.9,-1.3 -11.8,-2c-2.2,-0.8 -4.6,-1.9 -6.8,-4.6c-0.6,-0.7 -1.4,-2.5 -1.4,-4.3l-5.6,0l0,15.3l6.1,0s0,-1.7 0,-2.1c0,-0.2 0.3,-1.2 1.3,-0.7c1.3,0.6 5,2.1 9,2.9c3.2,0.7 5.3,1.1 9.2,1.1c6.5,0 10,-1.1 12.4,-1.7c2.3,-0.7 5.1,-1.8 7.4,-3.7c1.3,-1 3.9,-3.5 3.9,-8.1c0,-4.4 -2.3,-7.2 -3.2,-8c-1.1,-1.1 -2.5,-2 -3.9,-2.7c-1.3,-0.6 -3.2,-1.3 -4.9,-1.7c-3.2,-0.8 -10.3,-1.8 -13.7,-2.1c-3.6,-0.4 -9.8,-0.9 -12.2,-1.7c-0.8,-0.2 -2.3,-1 -2.3,-2.7c0,-1.3 0.7,-2.3 2.1,-3.2c2.2,-1.4 6.6,-2.2 11.2,-2.2c5.5,0 10.1,1.2 13,2.5c1,0.5 2.2,1.1 3.1,1.9c1.1,0.9 2.5,2.6 3.1,5.1l4.9,0l0,-13.4l-5.3,0l0,1.6c0,0.5 -0.5,1.2 -1.5,0.6c-2.5,-1.3 -9.5,-4.1 -18,-4.1zm66.1,44c-9,0 -17.4,-2.7 -23.1,-7.8c-4.2,-3.8 -6.3,-9 -6.3,-14.3c0,-5.2 2.1,-10.5 6.3,-14.3c5.2,-4.7 14.4,-7.7 23.1,-7.7c9.6,0 17.3,2.4 23.1,7.7c4.2,3.8 6.2,9 6.2,14.2c0,5.1 -2.1,10.5 -6.2,14.3c-5.4,5.2 -14,7.9 -23.1,7.9l0,-5.8c4.8,0 9.3,-1.7 12.4,-4.8s4.5,-6.9 4.5,-11.5c0,-4.5 -1.5,-8.6 -4.5,-11.5c-3.1,-3 -7.6,-4.7 -12.4,-4.7s-9.3,1.7 -12.4,4.7c-2.9,2.9 -4.5,7.1 -4.5,11.5s1.6,8.5 4.5,11.5c3.1,3.1 7.6,4.8 12.4,4.8l0,5.8z" id="svg_4"/>
  <path d="m482.2,528.9c-1.1,-1.1 -2.5,-1.9 -3.9,-2.6c-1.3,-0.6 -3.1,-1.2 -4.7,-1.5c-3.2,-0.8 -10.4,-1.8 -13.8,-2.1c-3.6,-0.4 -9.7,-1.1 -12.2,-1.8c-0.8,-0.2 -2.3,-1.2 -2.3,-3c0,-1.3 0.7,-2.3 2.1,-3.2c2.2,-1.4 6.6,-2.2 11.2,-2.2c5.5,0 10.1,1.2 13,2.5c1,0.5 2.2,1.1 3.1,1.9c1.1,0.9 2.5,2.6 3,5.1l4.9,0l0,-13.4l-5.5,0l0,1.6c0,0.5 -0.5,1.2 -1.5,0.6c-2.5,-1.3 -9.4,-4.1 -18,-4.1c-4.8,0 -10.4,0.9 -15,3c-4.3,1.9 -7.9,5 -7.9,10.2c0,4.6 3,7.3 2.9,7.2c1.3,1.2 3.3,3 8.6,4.2c2.4,0.5 7.5,1.2 12.5,1.8c5,0.5 9.9,1.2 11.9,1.7c1.6,0.4 4.2,1.1 4.2,4.1s-2.8,3.9 -3.3,4.1s-3.9,1.7 -9.9,1.7c-4.5,0 -9.9,-1.3 -11.8,-2c-2.3,-0.8 -4.6,-1.9 -6.8,-4.6c-0.6,-0.7 -1.4,-2.5 -1.4,-4.3l-5.6,0l0,15.4l6.1,0s0,-1.7 0,-2.1c0,-0.2 0.3,-1.2 1.3,-0.7c1.3,0.6 5,2.1 9,2.9c3.2,0.7 5.3,1.1 9.2,1.1c6.5,0 10,-1.1 12.4,-1.7c2.3,-0.7 5.1,-1.8 7.4,-3.7c1.2,-1 3.9,-3.5 3.9,-8.1s-2.3,-7.2 -3.1,-8zm34.5,14.3c-0.5,-0.1 -0.9,-0.5 -1,-0.9l-0.1,-1.1l-0.1,-25.2l0.1,-1.1c0.1,-0.4 0.5,-0.8 1,-0.9l1.3,-0.1l5.1,0l0,-4.9l-27.1,0l0,4.9l4.8,0l1.4,0.1c0.5,0.1 0.9,0.5 1.1,0.9l0.1,1.1l-0.1,25.2l-0.1,1.1c-0.2,0.4 -0.5,0.8 -1.1,0.9l-1.3,0.1l-4.8,0l0,4.9l27.3,0l0,-4.9s-4.1,0 -5.1,0l-1.4,-0.1zm-112.8,-29.3l4.5,0c2.2,0 2.7,0.9 2.7,2.8l0,19.7c0,4.5 -1.7,9.5 -14.2,9.5c-11.7,0 -11.2,-8.1 -11.2,-9.5l0,-19.7c0.1,-2.1 0.3,-2.8 2.5,-2.8l4.8,0l0,-4.9l-27.8,0l0,4.9l4.8,0c2.3,0 2.7,0.9 2.7,3l0,18.9c0,12.5 13,14.7 24.2,14.7c11.4,0 22.4,-2.3 22.4,-14.4l-0.1,-20.4c0.1,-1.4 0.6,-1.9 2.5,-1.9l4.9,0l0,-4.9l-22.7,0l0,5zm-70.9,-4.8l-11.6,25.6l-11.6,-25.6l-11.3,0l-0.4,0l-13.5,0l0,4.9l4.3,0c3.1,0 3.3,1.7 3.3,3.2l0,22.8c0,1.4 0.1,3.2 -1.9,3.2c-3.1,0 -5.3,0 -5.3,0l0,4.9l21.2,0l0,-4.9s-1.1,0 -4.2,0c-2.2,0 -2.3,-1 -2.4,-3.2l0,-24.9l0.2,0l14.9,32.9l8.4,0l14.7,-32.9l0.2,0l0.2,24.9c0,2.2 -0.2,3.2 -2.3,3.2c-3.1,0 -4.2,0 -4.2,0l0,4.9l25.7,0l0,-4.9s-2.2,0 -5.3,0c-2,0 -1.9,-1.9 -1.9,-3.2l-0.1,-22.9c0,-1.5 0.2,-3.2 3.3,-3.2l4.3,0l0,-4.9l-17.8,0l-6.9,0.1zm246.3,25.1c-0.9,3 -4,6.5 -6.9,7.9c-2.7,1.3 -6.2,2.7 -11.8,2.6c-0.1,0 -0.9,0 -1.2,0c-0.9,-0.1 -1.9,-0.2 -2.8,-0.4c-3.2,-0.7 -6.2,-2.2 -8.4,-4.3c-2.9,-2.9 -4.5,-7.1 -4.5,-11.5s1.6,-8.6 4.5,-11.5c3,-3 7.4,-4.5 12,-4.6l0.9,0c5.1,0.1 8.1,0.8 11.9,2.7c2.4,1.2 5.8,4.7 6.5,8.3l5.3,0l0,-14.5l-5.5,0l0,1.6c0,0.3 -0.1,0.6 -0.4,0.7s-0.6,0.2 -1.1,-0.1c-2.4,-1.3 -8.7,-4.6 -17.2,-4.6c-0.3,0 -0.7,0 -1,0l-0.1,0c-8.3,0.2 -17,3.2 -22,7.7c-1.2,1.1 -2.2,2.3 -3.1,3.6c-2.1,3.2 -3.2,6.9 -3.2,10.7l0,1.1c0.3,4.9 2.3,9.6 6.2,13.1c4.7,4.2 11.4,6.8 18.7,7.5c7,0.7 14.3,-0.4 19.2,-3.2s8.3,-7.4 9.4,-12.5l0.1,-0.3l-5.5,0z" id="svg_5"/>
  <path d="m4.4,578.3l32.1,0c8.3,0 12.6,0.8 16.1,2.9c2.9,1.8 4.6,4.8 4.6,8.1c0,3.4 -1.8,6.4 -5,8.3c-3.4,1.9 -7.5,2.7 -15.7,2.7l-11,0l0,9c0,3.2 0.6,3.7 5,3.6l3.6,0l0,4.8l-29.7,0l0,-4.8l3,0c4.5,0.1 5,-0.4 5,-3.6l0,-22.5c0,-3.2 -0.6,-3.7 -5,-3.6l-3,0l0,-4.9zm28.3,17.1c9.1,0 12.5,-1.7 12.5,-6.3c0,-2.1 -0.9,-3.7 -2.6,-4.6c-1.9,-1.1 -4.3,-1.4 -9.5,-1.4l-7.6,0l0,12.3l7.2,0z" id="svg_6"/>
  <path d="m125,583.2l-2.8,0c-4.2,-0.1 -4.7,0.4 -4.7,3.6l0,19.4c0,9.1 -7,13.8 -22.8,13.8c-21.5,0 -24.1,-9.3 -24.1,-13.4l0,-19.8c0,-3.2 -0.6,-3.7 -5.1,-3.6l-2.4,0l0,-4.8l27.6,0l0,4.8l-2.3,0c-4.5,-0.1 -5,0.4 -5,3.6l0,19.1c0,5.7 3.8,9.4 12.3,9.4c7.8,0 13.9,-2.8 13.9,-8.8l0,-19.5c0,-3.2 0,-3.9 -4.2,-3.8l-3.1,0l0,-4.8l22.7,0l0,4.8z" id="svg_7"/>
  <path d="m164.3,578.3c15.1,0 19.9,4.6 19.9,9.5c0,6.4 -6,7.8 -11.9,9.1c7.2,0.9 13.6,3.4 13.6,10.1c0,9.5 -10.8,10.7 -23.1,10.7l-30.6,0l0,-4.8l4,0c4.5,0.1 5,-0.4 5,-3.6l0,-22.5c0,-3.2 -0.6,-3.7 -5,-3.6l-4,0l0,-4.8l32.1,0l0,-0.1zm-3.3,16.7c8.6,0 11.8,-1.6 11.8,-6c0,-2.1 -0.8,-3.6 -2.4,-4.5c-1.8,-1 -4.1,-1.4 -9,-1.4l-8.1,0l0,11.9l7.7,0zm-0.9,17.9c5.6,0 8.2,-0.4 10.2,-1.4c2,-1.1 3.1,-2.9 3.1,-5.3c0,-2.3 -1,-4 -2.8,-5c-2.1,-1.2 -4.7,-1.6 -10.6,-1.6l-6.8,0l0,13.2l6.9,0l0,0.1z" id="svg_8"/>
  <path d="m226,583.2l-4.6,0c-4.5,-0.1 -5,0.4 -5,3.6l0,26.1l10.9,0c10.6,0.2 13.5,-2.5 14.1,-12.5l6.1,0l0,17.3l-52.5,0l0,-4.8l4.3,0c4.5,0.1 5,-0.4 5,-3.6l0,-22.5c0,-3.2 -0.6,-3.7 -5,-3.6l-4.3,0l0,-4.8l31,0l0,4.8z" id="svg_9"/>
  <path d="m257.4,612.8l2.4,0c4.5,0.1 5,-0.4 5,-3.6l0,-22.5c0,-3.2 -0.6,-3.7 -5,-3.6l-2.4,0l0,-4.8l27.5,0l0,4.8l-2.6,0c-4.6,-0.1 -5.1,0.4 -5.1,3.6l0,22.5c0,3.2 0.6,3.7 5.1,3.6l2.6,0l0,4.8l-27.5,0l0,-4.8z" id="svg_10"/>
  <path d="m318.2,576.1c-4.9,0 -10.4,0.9 -15.1,3c-4.3,1.9 -7.9,5.1 -7.9,10.3c0,4.7 3,7.4 2.9,7.3c1.3,1.2 3.3,3.2 8.6,4.3c2.4,0.5 7.4,1.3 12.5,1.9c5,0.5 10,1 12,1.5c1.6,0.4 4.3,1 4.3,4s-2.8,3.9 -3.3,4.1s-3.9,1.8 -10,1.8c-4.5,0 -9.9,-1.3 -11.9,-2c-2.3,-0.8 -4.6,-1.9 -6.9,-4.7c-0.6,-0.7 -1.4,-2.5 -1.4,-4.4l-5.6,0l0,15.5l6.2,0s0,-1.7 0,-2.1c0,-0.2 0.3,-1.2 1.3,-0.7c1.3,0.6 5,2.1 9,2.9c3.2,0.7 5.3,1.1 9.3,1.1c6.6,0 10.1,-1.1 12.5,-1.8c2.3,-0.7 5.2,-1.9 7.4,-3.7c1.3,-1 4,-3.5 4,-8.1c0,-4.4 -2.4,-7.2 -3.2,-8c-1.1,-1.1 -2.5,-2 -4,-2.7c-1.3,-0.6 -3.3,-1.3 -4.9,-1.7c-3.2,-0.8 -10.3,-1.8 -13.7,-2.1c-3.6,-0.4 -9.8,-0.9 -12.3,-1.7c-0.8,-0.2 -2.3,-1 -2.3,-2.7c0,-1.3 0.7,-2.4 2.1,-3.2c2.2,-1.4 6.7,-2.2 11.3,-2.2c5.5,0 10.1,1.2 13.1,2.5c1,0.5 2.2,1.1 3.1,1.9c1.1,0.9 2.5,2.6 3.1,5.1l5,0l0,-13.5l-5.5,0l0,1.6c0,0.5 -0.5,1.2 -1.5,0.6c-2.6,-1.2 -9.6,-4 -18.2,-4.1z" id="svg_11"/>
  <path d="m383.9,583.2l-5.4,0c-3.8,-0.1 -4.5,0.4 -4.4,3.6l0,8.6l26.1,0l0,-8.6c0,-3.2 -0.6,-3.7 -4.4,-3.6l-5.3,0l0,-4.8l30,0l0,4.8l-4,0c-4.5,-0.1 -5,0.4 -5,3.6l0,22.5c0,3.2 0.6,3.7 5,3.6l4,0l0,4.8l-30,0l0,-4.8l5.3,0c3.8,0.1 4.4,-0.4 4.4,-3.6l0,-9.6l-26.1,0l0,9.6c-0.1,3.2 0.6,3.7 4.4,3.6l5.4,0l0,4.8l-30.3,0l0,-4.8l4.1,0c4.5,0.1 5,-0.4 5,-3.6l0,-22.5c0,-3.2 -0.6,-3.7 -5,-3.6l-4.1,0l0,-4.8l30.3,0l0,4.8z" id="svg_12"/>
  <path d="m430.4,612.8l2.5,0c4.5,0.1 5,-0.4 5,-3.6l0,-22.5c0,-3.2 -0.6,-3.7 -5,-3.6l-2.5,0l0,-4.8l27.3,0l0,4.8l-2.7,0c-4.6,-0.1 -5.1,0.4 -5.1,3.6l0,22.5c0,3.2 0.6,3.7 5.1,3.6l2.7,0l0,4.8l-27.3,0l0,-4.8z" id="svg_13"/>
  <path d="m489.3,617.7l-22.2,0l0,-4.8l1.9,0c4.6,0.1 5.1,-0.4 5.1,-3.6l0,-22.5c0,-3.2 -0.6,-3.7 -5.1,-3.6l-2.3,0l0,-4.8l18.8,0l27.1,24l0,-15.6c0,-3.2 -0.6,-3.7 -5,-3.6l-3,0l0,-4.8l23,0l0,4.8l-2.6,0c-4.5,-0.1 -5,0.4 -5,3.6l0,30.9l-7.4,0l-31.1,-27.9l0,19.5c0,3.2 0.6,3.7 5,3.6l3,0l0,4.8l-0.2,0z" id="svg_14"/>
  <path d="m588.9,601.7c-2.8,0 -3.4,0.6 -3.5,2.7l0,14l-6,0l0,-5.5c-5.6,5.4 -10.9,7.1 -19.4,7.1c-16,0 -29,-8.8 -29,-21.9s12.2,-22 29.4,-22c6.2,0 12.5,2.1 18.7,5.8l0,-3.6l5.1,0l0,14.9l-5.2,0c-1.1,-6.4 -7.4,-11.1 -18.1,-11.1c-10.1,0 -17.5,5.6 -17.5,15.8s7.5,16.3 17.3,16.3c7.8,0 13.9,-2.7 13.9,-7.7l0,-1.7c0,-2.8 -0.3,-3.1 -4.2,-3.2l-4.6,0l0,-5l27,0l0,5l-3.9,0l0,0.1z" id="svg_15"/>
 </g>
</svg>