<svg version="1.2" xmlns="http://www.w3.org/2000/svg" viewBox="0 0 250 54" width="250" height="54">
	<style>
		.s0 { fill: #100906 } 
	</style>
	<g id="Layer_1-2">
		<g>
			<path fill-rule="evenodd" class="s0" d="m24.44 4.58h-8.61v-4.39h21.97v4.39h-8.61v22.58h-4.75v-22.58z"/>
			<path fill-rule="evenodd" class="s0" d="m45.82 0.19h4.75v11.21h12.9v-11.21h4.75v26.97h-4.75v-11.37h-12.9v11.37h-4.75v-26.97z"/>
			<path fill-rule="evenodd" class="s0" d="m77.12 0.19h20.04v4.24h-15.29v7.01h13.56v4.28h-13.56v7.2h15.49v4.24h-20.24v-26.97z"/>
			<path fill-rule="evenodd" class="s0" d="m121.76 4.58h-8.61v-4.39h21.97v4.39h-8.61v22.58h-4.75v-22.58z"/>
			<path fill-rule="evenodd" class="s0" d="m143.81 0.19h20.04v4.24h-15.29v7.01h13.55v4.28h-13.55v7.2h15.48v4.24h-20.23v-26.97z"/>
			<path class="s0" d="m183.45 0h4.4l11.9 27.16h-5.02l-2.75-6.51h-12.78l-2.78 6.51h-4.87zm6.8 16.45l-4.67-10.79-4.64 10.79z"/>
			<path fill-rule="evenodd" class="s0" d="m206.73 0.19h5.06l8.23 12.75 8.22-12.75h5.06v26.97h-4.75v-19.34l-8.53 12.71h-0.16l-8.45-12.63v19.26h-4.68v-26.97z"/>
			<path fill-rule="evenodd" class="s0" d="m111.21 11.34v4.41h-4.26v-4.41z"/>
			<path class="s0" d="m0 50.86l0.7-0.83c1.04 0.94 2.04 1.41 3.42 1.41 1.38 0 2.23-0.71 2.23-1.69v-0.03c0-0.92-0.5-1.45-2.6-1.89-2.3-0.5-3.35-1.23-3.35-2.87v-0.03c0-1.56 1.38-2.71 3.28-2.71 1.45 0 2.5 0.41 3.51 1.22l-0.66 0.87c-0.92-0.76-1.85-1.08-2.88-1.08-1.29 0-2.12 0.71-2.12 1.6v0.03c0 0.94 0.51 1.46 2.71 1.93 2.22 0.49 3.25 1.3 3.25 2.82v0.03c0 1.71-1.43 2.81-3.41 2.81-1.58 0-2.88-0.52-4.08-1.59z"/>
			<path class="s0" d="m9.35 42.35h3.74c2.25 0 3.74 1.2 3.74 3.16v0.03c0 2.15-1.8 3.25-3.93 3.25h-2.42v3.52h-1.13c0 0 0-9.96 0-9.96zm3.6 5.42c1.65 0 2.73-0.88 2.73-2.19v-0.03c0-1.42-1.07-2.16-2.68-2.16h-2.52v4.38z"/>
			<path class="s0" d="m18.09 47.36v-0.03c0-2.74 2.07-5.15 5.11-5.15 3.04 0 5.08 2.38 5.08 5.12v0.03c0 2.74-2.07 5.15-5.11 5.15-3.04 0-5.08-2.38-5.08-5.12zm9.02 0v-0.03c0-2.26-1.66-4.11-3.94-4.11-2.28 0-3.91 1.82-3.91 4.08v0.03c0 2.26 1.66 4.11 3.94 4.11 2.28 0 3.91-1.82 3.91-4.08z"/>
			<path class="s0" d="m30.17 42.35h4.29c1.23 0 2.21 0.37 2.84 1 0.49 0.49 0.77 1.18 0.77 1.96v0.03c0 1.65-1.14 2.62-2.71 2.9l3.06 4.07h-1.38l-2.89-3.87h-2.85v3.87h-1.13c0 0 0-9.96 0-9.96zm4.19 5.08c1.5 0 2.57-0.77 2.57-2.05v-0.02c0-1.23-0.94-1.97-2.55-1.97h-3.08v4.04c0 0 3.06 0 3.06 0z"/>
			<path class="s0" d="m42.61 43.39h-3.37v-1.04h7.86v1.04h-3.36v8.92h-1.13v-8.92z"/>
			<path class="s0" d="m48.07 50.86l0.7-0.83c1.04 0.94 2.04 1.41 3.42 1.41 1.38 0 2.22-0.71 2.22-1.69v-0.03c0-0.92-0.5-1.45-2.59-1.89-2.3-0.5-3.35-1.23-3.35-2.87v-0.03c0-1.56 1.38-2.71 3.28-2.71 1.45 0 2.49 0.41 3.51 1.22l-0.66 0.87c-0.93-0.76-1.85-1.08-2.88-1.08-1.3 0-2.12 0.71-2.12 1.6v0.03c0 0.94 0.51 1.46 2.7 1.93 2.23 0.49 3.26 1.3 3.26 2.82v0.03c0 1.71-1.43 2.81-3.41 2.81-1.59 0-2.88-0.52-4.08-1.59z"/>
			<path fill-rule="evenodd" class="s0" d="m62.46 40.72v13.17h-0.93v-13.17z"/>
			<path class="s0" d="m69.5 42.35h1.14l3.64 5.44 3.63-5.44h1.14v9.96h-1.12v-8.06l-3.64 5.33h-0.06l-3.64-5.32v8.05h-1.09c0 0 0-9.96 0-9.96z"/>
			<path class="s0" d="m81.35 48.14v-5.79h1.12v5.72c0 2.15 1.15 3.36 3.06 3.36 1.9 0 3-1.11 3-3.29v-5.79h1.13v5.71c0 2.9-1.67 4.4-4.16 4.4-2.5 0-4.15-1.5-4.15-4.32z"/>
			<path class="s0" d="m91.26 50.86l0.7-0.83c1.04 0.94 2.04 1.41 3.42 1.41 1.38 0 2.22-0.71 2.22-1.69v-0.03c0-0.92-0.5-1.45-2.59-1.89-2.3-0.5-3.35-1.23-3.35-2.87v-0.03c0-1.56 1.38-2.71 3.28-2.71 1.45 0 2.49 0.41 3.51 1.22l-0.66 0.87c-0.93-0.76-1.85-1.08-2.88-1.08-1.3 0-2.12 0.71-2.12 1.6v0.03c0 0.94 0.51 1.46 2.7 1.93 2.23 0.49 3.26 1.3 3.26 2.82v0.03c0 1.71-1.43 2.81-3.41 2.81-1.59 0-2.88-0.52-4.08-1.59z"/>
			<path fill-rule="evenodd" class="s0" d="m102.1 42.35v9.96h-1.13v-9.96z"/>
			<path class="s0" d="m104.16 47.36v-0.03c0-2.81 2.11-5.15 5.05-5.15 1.81 0 2.9 0.64 3.89 1.58l-0.77 0.83c-0.84-0.8-1.78-1.37-3.13-1.37-2.21 0-3.87 1.79-3.87 4.08v0.03c0 2.3 1.67 4.11 3.87 4.11 1.36 0 2.26-0.52 3.22-1.44l0.74 0.73c-1.04 1.05-2.18 1.75-3.99 1.75-2.88 0-5.01-2.26-5.01-5.12z"/>
			<path fill-rule="evenodd" class="s0" d="m120.33 40.72v13.17h-0.92v-13.17z"/>
			<g>
				<path class="s0" d="m127.39 42.35h7.22v1.03h-6.09v3.4h5.44v1.02h-5.44v3.49h6.15v1.02h-7.28v-9.95z"/>
				<path class="s0" d="m136.77 42.35h1.06l6.28 7.98v-7.98h1.1v9.96h-0.9l-6.44-8.16v8.16h-1.1v-9.96z"/>
				<path class="s0" d="m150.47 43.39h-3.36v-1.04h7.86v1.04h-3.37v8.92h-1.12c0 0 0-8.92-0.01-8.92z"/>
				<path class="s0" d="m156.86 42.35h7.22v1.03h-6.09v3.4h5.44v1.02h-5.44v3.49h6.16v1.02h-7.29v-9.95z"/>
			</g>
			<path class="s0" d="m166.2 42.35h4.29c1.23 0 2.21 0.37 2.84 1 0.49 0.49 0.77 1.18 0.77 1.96v0.03c0 1.65-1.14 2.62-2.71 2.9l3.07 4.07h-1.39l-2.89-3.87h-2.85v3.87h-1.13c0 0 0-9.96 0-9.96zm4.19 5.08c1.5 0 2.57-0.77 2.57-2.05v-0.02c0-1.23-0.94-1.97-2.55-1.97h-3.08v4.04c0 0 3.06 0 3.06 0z"/>
			<path class="s0" d="m178.81 43.39h-3.37v-1.04h7.86v1.04h-3.36v8.92h-1.13c0 0 0-8.92 0-8.92z"/>
			<g>
				<path class="s0" d="m187.65 42.28h1.05l4.55 10.03h-1.21l-1.17-2.63h-5.43l-1.18 2.63h-1.16c0 0 4.55-10.03 4.55-10.03zm2.78 6.39l-2.27-5.08-2.28 5.08z"/>
				<path fill-rule="evenodd" class="s0" d="m196.29 42.35v9.96h-1.13v-9.96z"/>
				<path class="s0" d="m199.05 42.35h1.06l6.29 7.98v-7.98h1.1v9.96h-0.9l-6.45-8.16v8.16h-1.1v-9.96z"/>
				<path class="s0" d="m210.16 42.35h1.14l3.64 5.44 3.64-5.44h1.14v9.96h-1.13v-8.06l-3.64 5.33h-0.05l-3.64-5.32v8.05h-1.1v-9.96z"/>
				<path class="s0" d="m222.38 42.35h7.22v1.03h-6.09v3.4h5.44v1.02h-5.44v3.49h6.16v1.02h-7.29v-9.95z"/>
				<path class="s0" d="m231.77 42.35h1.05l6.29 7.98v-7.98h1.1v9.96h-0.9l-6.45-8.16v8.16h-1.1c0 0 0-9.96 0.01-9.96z"/>
			</g>
			<path class="s0" d="m245.4 43.39h-3.37v-1.04h7.86v1.04h-3.36v8.92h-1.13c0 0 0-8.92 0-8.92z"/>
		</g>
	</g>
</svg>